<?xml version="1.0" standalone="no"?>
<!DOCTYPE svg PUBLIC "-//W3C//DTD SVG 20010904//EN"
 "http://www.w3.org/TR/2001/REC-SVG-20010904/DTD/svg10.dtd">
<svg version="1.0" xmlns="http://www.w3.org/2000/svg"
 width="833.000000pt" height="833.000000pt" viewBox="0 0 833.000000 833.000000"
 preserveAspectRatio="xMidYMid meet">
<metadata>
Created by potrace 1.11, written by Peter Selinger 2001-2013
</metadata>
<g transform="translate(0.000000,833.000000) scale(0.100000,-0.100000)"
fill="#000000" stroke="none">
<path d="M3909 8326 c-2 -2 -44 -7 -94 -10 -49 -4 -103 -9 -120 -11 -16 -2
-52 -7 -80 -10 -102 -13 -122 -16 -225 -36 -678 -132 -1295 -415 -1820 -836
-158 -128 -199 -164 -334 -298 -167 -166 -281 -295 -388 -440 -4 -5 -18 -23
-31 -40 -163 -209 -375 -584 -501 -885 -76 -181 -184 -517 -211 -660 -2 -12
-6 -29 -9 -38 -3 -9 -8 -30 -11 -47 -2 -16 -7 -41 -10 -55 -11 -55 -35 -198
-40 -245 -3 -27 -8 -64 -10 -81 -28 -201 -27 -736 0 -944 3 -19 7 -55 10 -80
6 -51 8 -63 40 -245 8 -50 58 -261 66 -282 5 -13 11 -36 14 -51 6 -35 78 -255
111 -341 184 -477 437 -899 758 -1266 71 -82 295 -308 376 -380 476 -424 1075
-746 1694 -910 130 -34 299 -72 366 -80 19 -3 44 -7 55 -9 18 -3 94 -14 155
-22 112 -15 228 -19 505 -19 176 0 352 4 390 8 140 16 162 19 275 37 525 86
1019 266 1467 536 70 43 151 93 178 112 28 19 79 56 115 81 93 65 292 227 384
312 344 319 593 636 829 1049 91 160 211 426 284 630 27 76 101 321 118 390 7
31 46 216 51 245 2 17 7 37 9 45 2 8 7 40 10 70 3 30 8 62 10 70 2 8 7 40 10
70 4 30 9 80 12 110 16 145 7 803 -13 904 -2 12 -6 41 -10 66 -3 25 -7 54 -9
65 -2 11 -6 40 -10 65 -23 161 -108 486 -175 675 -89 249 -228 551 -326 707
-13 21 -24 40 -24 43 0 12 -178 275 -254 375 -178 236 -383 455 -590 634 -72
62 -143 121 -157 132 -14 10 -61 45 -103 77 -74 56 -311 217 -319 217 -2 0
-40 22 -84 48 -350 210 -929 423 -1323 486 -19 3 -44 8 -56 10 -12 2 -45 7
-74 11 -29 4 -61 8 -71 10 -10 2 -49 7 -86 11 -37 3 -79 8 -93 11 -31 5 -626
14 -631 9z"/>
</g>
</svg>
